%
M48
M71
T01C0.600
T02C0.660
%
T01
X5969Y5715
X5969Y38735
X46609Y38735
X46609Y5715
T02
X44069Y10954
X40418Y13970
X38354Y13970
X35973Y15399
X32957Y14129
X31369Y15557
X27876Y16828
X23749Y19685
X25019Y21114
X26924Y21273
X26765Y23495
X27083Y26987
X24860Y27781
X22479Y25400
X22320Y22542
X21527Y18256
X19780Y15875
X21209Y14446
X16764Y16034
X12001Y17304
X10890Y18891
X11684Y21749
X11843Y23654
X14065Y26829
X15970Y26829
X18193Y27622
X14065Y34449
X27083Y31274
X28035Y33020
X30575Y30480
X31369Y28575
X36608Y26987
X44069Y20320
X39942Y19209
X36449Y19526
X26130Y12224
X8350Y15557
M30
