%
M48
M71
T01C0.660
T02C3.000
%
T01
X13350Y15557
X17002Y17304
X15890Y18891
X16684Y21749
X16843Y23654
X19065Y26829
X20970Y26829
X23193Y27622
X27479Y25400
X29860Y27781
X32083Y26987
X31765Y23495
X31924Y21273
X30019Y21114
X28749Y19685
X26526Y18256
X24780Y15875
X26209Y14446
X21764Y16034
X27320Y22542
X32877Y16828
X36369Y15557
X37957Y14129
X40973Y15399
X43354Y13970
X45418Y13970
X49069Y10954
X44941Y19209
X41449Y19526
X49069Y20320
X41608Y26987
X36369Y28575
X35575Y30480
X32083Y31274
X33035Y33020
X19065Y34449
X31130Y12224
T02
X10381Y5381
X45381Y5715
X45381Y40381
X10381Y40381
M30
