<?xml version="1.0" encoding="UTF-8" standalone="no"?>
<svg
   xmlns:dc="http://purl.org/dc/elements/1.1/"
   xmlns:cc="http://creativecommons.org/ns#"
   xmlns:rdf="http://www.w3.org/1999/02/22-rdf-syntax-ns#"
   xmlns:svg="http://www.w3.org/2000/svg"
   xmlns="http://www.w3.org/2000/svg"
   viewBox="0 0 816 1056"
   height="1056"
   width="816"
   xml:space="preserve"
   id="svg2"
   version="1.1"><metadata
     id="metadata8"><rdf:RDF><cc:Work
         rdf:about=""><dc:format>image/svg+xml</dc:format><dc:type
           rdf:resource="http://purl.org/dc/dcmitype/StillImage" /></cc:Work></rdf:RDF></metadata><defs
     id="defs6"><clipPath
       id="clipPath20"
       clipPathUnits="userSpaceOnUse"><path
         id="path18"
         d="M 180,180 V 7920 H 5760 V 180 Z" /></clipPath></defs><g
     transform="matrix(1.3333333,0,0,-1.3333333,0,1056)"
     id="g10"><g
       transform="scale(0.1)"
       id="g12"><g
         id="g14"><g
           clip-path="url(#clipPath20)"
           id="g16"><path
             id="path22"
             style="fill:none;stroke:#000000;stroke-width:7.5;stroke-linecap:round;stroke-linejoin:round;stroke-miterlimit:10;stroke-dasharray:none;stroke-opacity:1"
             d="M 190.801,190.801 H 1659.6" /><path
             id="path24"
             style="fill:none;stroke:#000000;stroke-width:7.5;stroke-linecap:round;stroke-linejoin:round;stroke-miterlimit:10;stroke-dasharray:none;stroke-opacity:1"
             d="M 1659.6,190.801 V 1464.92" /><path
             id="path26"
             style="fill:none;stroke:#000000;stroke-width:7.5;stroke-linecap:round;stroke-linejoin:round;stroke-miterlimit:10;stroke-dasharray:none;stroke-opacity:1"
             d="M 1659.6,1464.92 H 190.801" /><path
             id="path28"
             style="fill:none;stroke:#000000;stroke-width:7.5;stroke-linecap:round;stroke-linejoin:round;stroke-miterlimit:10;stroke-dasharray:none;stroke-opacity:1"
             d="M 190.801,1464.92 V 190.801" /><path
             id="path30"
             style="fill:none;stroke:#000000;stroke-width:7.19999981;stroke-linecap:round;stroke-linejoin:round;stroke-miterlimit:10;stroke-dasharray:none;stroke-opacity:1"
             d="m 1530,342 c 0,15.902 -12.9,28.801 -28.8,28.801 -15.9,0 -28.8,-12.899 -28.8,-28.801 0,-15.902 12.9,-28.801 28.8,-28.801 15.9,0 28.8,12.899 28.8,28.801" /><path
             id="path32"
             style="fill:none;stroke:#000000;stroke-width:7.19999981;stroke-linecap:round;stroke-linejoin:round;stroke-miterlimit:10;stroke-dasharray:none;stroke-opacity:1"
             d="m 378.887,1278 c 0,16.39 -13.293,29.69 -29.688,29.69 -16.394,0 -29.687,-13.3 -29.687,-29.69 0,-16.39 13.293,-29.69 29.687,-29.69 16.395,0 29.688,13.3 29.688,29.69" /><path
             id="path34"
             style="fill:none;stroke:#000000;stroke-width:7.19999981;stroke-linecap:round;stroke-linejoin:round;stroke-miterlimit:10;stroke-dasharray:none;stroke-opacity:1"
             d="m 1517.3,1278 c 0,8.89 -7.21,16.1 -16.1,16.1 -8.89,0 -16.1,-7.21 -16.1,-16.1 0,-8.89 7.21,-16.1 16.1,-16.1 8.89,0 16.1,7.21 16.1,16.1" /><path
             id="path36"
             style="fill:none;stroke:#000000;stroke-width:7.19999981;stroke-linecap:round;stroke-linejoin:round;stroke-miterlimit:10;stroke-dasharray:none;stroke-opacity:1"
             d="m 365.301,342 c 0,8.891 -7.211,16.102 -16.102,16.102 -8.89,0 -16.101,-7.211 -16.101,-16.102 0,-8.891 7.211,-16.102 16.101,-16.102 8.891,0 16.102,7.211 16.102,16.102" /><path
             id="path38"
             style="fill:none;stroke:#000000;stroke-width:7.19999981;stroke-linecap:round;stroke-linejoin:round;stroke-miterlimit:10;stroke-dasharray:none;stroke-opacity:1"
             d="M 327.602,320.398 H 1522.8" /><path
             id="path40"
             style="fill:none;stroke:#000000;stroke-width:7.19999981;stroke-linecap:round;stroke-linejoin:round;stroke-miterlimit:10;stroke-dasharray:none;stroke-opacity:1"
             d="M 1522.8,320.398 V 1299.6" /><path
             id="path42"
             style="fill:none;stroke:#000000;stroke-width:7.19999981;stroke-linecap:round;stroke-linejoin:round;stroke-miterlimit:10;stroke-dasharray:none;stroke-opacity:1"
             d="M 1522.8,1299.6 H 327.602" /><path
             id="path44"
             style="fill:none;stroke:#000000;stroke-width:7.19999981;stroke-linecap:round;stroke-linejoin:round;stroke-miterlimit:10;stroke-dasharray:none;stroke-opacity:1"
             d="M 327.602,1299.6 V 320.398" /><path
             id="path46"
             style="fill:#000000;fill-opacity:1;fill-rule:nonzero;stroke:none"
             d="m 352.406,342 c 0,1.77 -1.437,3.207 -3.207,3.207 -1.769,0 -3.207,-1.437 -3.207,-3.207 0,-1.77 1.438,-3.207 3.207,-3.207 1.77,0 3.207,1.437 3.207,3.207" /><path
             id="path48"
             style="fill:#000000;fill-opacity:1;fill-rule:nonzero;stroke:none"
             d="m 1503.24,1278 c 0,1.13 -0.92,2.04 -2.04,2.04 -1.13,0 -2.04,-0.91 -2.04,-2.04 0,-1.12 0.91,-2.04 2.04,-2.04 1.12,0 2.04,0.92 2.04,2.04" /><path
             id="path50"
             style="fill:#000000;fill-opacity:1;fill-rule:nonzero;stroke:none"
             d="m 1502.35,342 c 0,0.633 -0.52,1.148 -1.15,1.148 -0.63,0 -1.15,-0.515 -1.15,-1.148 0,-0.633 0.52,-1.148 1.15,-1.148 0.63,0 1.15,0.515 1.15,1.148" /><path
             id="path52"
             style="fill:#000000;fill-opacity:1;fill-rule:nonzero;stroke:none"
             d="m 350.77,1278 c 0,0.86 -0.707,1.57 -1.571,1.57 -0.863,0 -1.566,-0.71 -1.566,-1.57 0,-0.86 0.703,-1.57 1.566,-1.57 0.864,0 1.571,0.71 1.571,1.57" /></g></g></g></g></svg>