<?xml version="1.0" encoding="UTF-8" standalone="no"?>
<svg
   xmlns:dc="http://purl.org/dc/elements/1.1/"
   xmlns:cc="http://creativecommons.org/ns#"
   xmlns:rdf="http://www.w3.org/1999/02/22-rdf-syntax-ns#"
   xmlns:svg="http://www.w3.org/2000/svg"
   xmlns="http://www.w3.org/2000/svg"
   viewBox="0 0 816 1056"
   height="1056"
   width="816"
   xml:space="preserve"
   id="svg2"
   version="1.1"><metadata
     id="metadata8"><rdf:RDF><cc:Work
         rdf:about=""><dc:format>image/svg+xml</dc:format><dc:type
           rdf:resource="http://purl.org/dc/dcmitype/StillImage" /></cc:Work></rdf:RDF></metadata><defs
     id="defs6"><clipPath
       id="clipPath20"
       clipPathUnits="userSpaceOnUse"><path
         id="path18"
         d="M 180,180 V 7920 H 5760 V 180 Z" /></clipPath></defs><g
     transform="matrix(1.3333333,0,0,-1.3333333,0,1056)"
     id="g10"><g
       transform="scale(0.1)"
       id="g12"><g
         id="g14"><g
           clip-path="url(#clipPath20)"
           id="g16"><path
             id="path22"
             style="fill:#000000;fill-opacity:1;fill-rule:nonzero;stroke:none"
             d="m 989.891,1140.84 h 17.2813 v 62.6406 H 989.891 Z" /><path
             id="path24"
             style="fill:#000000;fill-opacity:1;fill-rule:nonzero;stroke:none"
             d="m 953.891,1140.84 h 17.2813 v 62.6406 H 953.891 Z" /><path
             id="path26"
             style="fill:#000000;fill-opacity:1;fill-rule:nonzero;stroke:none"
             d="m 917.891,1140.84 h 17.2813 v 62.6406 H 917.891 Z" /><path
             id="path28"
             style="fill:#000000;fill-opacity:1;fill-rule:nonzero;stroke:none"
             d="m 881.891,1140.84 h 17.2813 v 62.6406 H 881.891 Z" /><path
             id="path30"
             style="fill:#000000;fill-opacity:1;fill-rule:nonzero;stroke:none"
             d="m 881.891,992.52 h 17.2813 v 62.6406 H 881.891 Z" /><path
             id="path32"
             style="fill:#000000;fill-opacity:1;fill-rule:nonzero;stroke:none"
             d="m 917.891,992.52 h 17.2813 v 62.6406 H 917.891 Z" /><path
             id="path34"
             style="fill:#000000;fill-opacity:1;fill-rule:nonzero;stroke:none"
             d="m 953.891,992.52 h 17.2813 v 62.6406 H 953.891 Z" /><path
             id="path36"
             style="fill:#000000;fill-opacity:1;fill-rule:nonzero;stroke:none"
             d="m 989.891,992.52 h 17.2813 v 62.6406 H 989.891 Z" /><path
             id="path38"
             style="fill:#000000;fill-opacity:1;fill-rule:nonzero;stroke:none"
             d="m 696.953,887.895 h 34.0156 v 17.0078 H 696.953 Z" /><path
             id="path40"
             style="fill:#000000;fill-opacity:1;fill-rule:nonzero;stroke:none"
             d="m 696.953,851.895 h 34.0156 v 17.0078 H 696.953 Z" /><path
             id="path42"
             style="fill:#000000;fill-opacity:1;fill-rule:nonzero;stroke:none"
             d="m 696.953,815.895 h 34.0156 v 17.0078 H 696.953 Z" /><path
             id="path44"
             style="fill:#000000;fill-opacity:1;fill-rule:nonzero;stroke:none"
             d="m 696.953,779.895 h 34.0156 v 17.0078 H 696.953 Z" /><path
             id="path46"
             style="fill:#000000;fill-opacity:1;fill-rule:nonzero;stroke:none"
             d="m 696.953,743.895 h 34.0156 v 17.0078 H 696.953 Z" /><path
             id="path48"
             style="fill:#000000;fill-opacity:1;fill-rule:nonzero;stroke:none"
             d="m 696.953,707.895 h 34.0156 v 17.0078 H 696.953 Z" /><path
             id="path50"
             style="fill:#000000;fill-opacity:1;fill-rule:nonzero;stroke:none"
             d="m 696.953,671.895 h 34.0156 v 17.0078 H 696.953 Z" /><path
             id="path52"
             style="fill:#000000;fill-opacity:1;fill-rule:nonzero;stroke:none"
             d="m 855.695,671.895 h 34.0156 v 17.0078 H 855.695 Z" /><path
             id="path54"
             style="fill:#000000;fill-opacity:1;fill-rule:nonzero;stroke:none"
             d="m 855.695,707.895 h 34.0156 v 17.0078 H 855.695 Z" /><path
             id="path56"
             style="fill:#000000;fill-opacity:1;fill-rule:nonzero;stroke:none"
             d="m 855.695,743.895 h 34.0156 v 17.0078 H 855.695 Z" /><path
             id="path58"
             style="fill:#000000;fill-opacity:1;fill-rule:nonzero;stroke:none"
             d="m 855.695,779.895 h 34.0156 v 17.0078 H 855.695 Z" /><path
             id="path60"
             style="fill:#000000;fill-opacity:1;fill-rule:nonzero;stroke:none"
             d="m 855.695,815.895 h 34.0156 v 17.0078 H 855.695 Z" /><path
             id="path62"
             style="fill:#000000;fill-opacity:1;fill-rule:nonzero;stroke:none"
             d="m 855.695,851.895 h 34.0156 v 17.0078 H 855.695 Z" /><path
             id="path64"
             style="fill:#000000;fill-opacity:1;fill-rule:nonzero;stroke:none"
             d="m 855.695,887.895 h 34.0156 v 17.0078 H 855.695 Z" /><path
             id="path66"
             style="fill:#000000;fill-opacity:1;fill-rule:nonzero;stroke:none"
             d="m 555.961,849.516 h 28.3438 v 31.1797 H 555.961 Z" /><path
             id="path68"
             style="fill:#000000;fill-opacity:1;fill-rule:nonzero;stroke:none"
             d="m 555.961,897.703 h 28.3438 v 31.1836 H 555.961 Z" /><path
             id="path70"
             style="fill:#000000;fill-opacity:1;fill-rule:nonzero;stroke:none"
             d="m 554.543,809.121 h 31.1797 v 28.3477 H 554.543 Z" /><path
             id="path72"
             style="fill:#000000;fill-opacity:1;fill-rule:nonzero;stroke:none"
             d="m 554.543,760.934 h 31.1797 v 28.3438 H 554.543 Z" /><path
             id="path74"
             style="fill:#000000;fill-opacity:1;fill-rule:nonzero;stroke:none"
             d="m 562.934,392.398 h 72 v 144 h -72 z" /><path
             id="path76"
             style="fill:#000000;fill-opacity:1;fill-rule:nonzero;stroke:none"
             d="m 656.531,392.398 h 72 v 144 h -72 z" /><path
             id="path78"
             style="fill:#000000;fill-opacity:1;fill-rule:nonzero;stroke:none"
             d="m 534.133,1069.2 h 144 v 72 h -144 z" /><path
             id="path80"
             style="fill:#000000;fill-opacity:1;fill-rule:nonzero;stroke:none"
             d="m 899.066,938.41 h 28.3438 v 31.1797 H 899.066 Z" /><path
             id="path82"
             style="fill:#000000;fill-opacity:1;fill-rule:nonzero;stroke:none"
             d="m 947.254,938.41 h 28.3477 v 31.1797 H 947.254 Z" /><path
             id="path84"
             style="fill:#000000;fill-opacity:1;fill-rule:nonzero;stroke:none"
             d="m 1026.14,1107.92 h 31.1836 v 28.3477 H 1026.14 Z" /><path
             id="path86"
             style="fill:#000000;fill-opacity:1;fill-rule:nonzero;stroke:none"
             d="m 1026.14,1059.73 h 31.1836 v 28.3477 H 1026.14 Z" /><path
             id="path88"
             style="fill:#000000;fill-opacity:1;fill-rule:nonzero;stroke:none"
             d="m 534.133,968.398 h 144 v 72 h -144 z" /><path
             id="path90"
             style="fill:#000000;fill-opacity:1;fill-rule:nonzero;stroke:none"
             d="m 692.445,1087.43 h 31.1836 v 28.3477 H 692.445 Z" /><path
             id="path92"
             style="fill:#000000;fill-opacity:1;fill-rule:nonzero;stroke:none"
             d="m 740.637,1087.43 h 31.1797 v 28.3477 H 740.637 Z" /><path
             id="path94"
             style="fill:#000000;fill-opacity:1;fill-rule:nonzero;stroke:none"
             d="m 750.133,392.398 h 72 v 144 h -72 z" /><path
             id="path96"
             style="fill:#000000;fill-opacity:1;fill-rule:nonzero;stroke:none"
             d="m 843.73,392.398 h 72 v 144 h -72 z" /><path
             id="path98"
             style="fill:#000000;fill-opacity:1;fill-rule:nonzero;stroke:none"
             d="m 1023.65,1001.03 h 31.1797 v 28.3477 H 1023.65 Z" /><path
             id="path100"
             style="fill:#000000;fill-opacity:1;fill-rule:nonzero;stroke:none"
             d="m 1071.84,1001.03 h 31.1797 v 28.3477 H 1071.84 Z" /><path
             id="path102"
             style="fill:#000000;fill-opacity:1;fill-rule:nonzero;stroke:none"
             d="m 702.141,987.73 h 31.1836 v 28.3477 H 702.141 Z" /><path
             id="path104"
             style="fill:#000000;fill-opacity:1;fill-rule:nonzero;stroke:none"
             d="m 702.141,1035.92 h 31.1836 v 28.3477 H 702.141 Z" /><path
             id="path106"
             style="fill:#000000;fill-opacity:1;fill-rule:nonzero;stroke:none"
             d="m 1029.74,627.73 h 31.1797 v 28.3477 H 1029.74 Z" /><path
             id="path108"
             style="fill:#000000;fill-opacity:1;fill-rule:nonzero;stroke:none"
             d="m 1029.74,675.922 h 31.1797 v 28.3477 H 1029.74 Z" /><path
             id="path110"
             style="fill:#000000;fill-opacity:1;fill-rule:nonzero;stroke:none"
             d="m 964.941,675.922 h 31.1797 v 28.3477 H 964.941 Z" /><path
             id="path112"
             style="fill:#000000;fill-opacity:1;fill-rule:nonzero;stroke:none"
             d="m 964.941,627.73 h 31.1797 v 28.3477 H 964.941 Z" /><path
             id="path114"
             style="fill:#000000;fill-opacity:1;fill-rule:nonzero;stroke:none"
             d="m 763.34,987.73 h 31.1836 v 28.3477 H 763.34 Z" /><path
             id="path116"
             style="fill:#000000;fill-opacity:1;fill-rule:nonzero;stroke:none"
             d="m 763.34,1035.92 h 31.1836 v 28.3477 H 763.34 Z" /><path
             id="path118"
             style="fill:#000000;fill-opacity:1;fill-rule:nonzero;stroke:none"
             d="m 1102.93,392.398 h 72 v 144 h -72 z" /><path
             id="path120"
             style="fill:#000000;fill-opacity:1;fill-rule:nonzero;stroke:none"
             d="m 1189.33,392.398 h 72 v 144 h -72 z" /><path
             id="path122"
             style="fill:#000000;fill-opacity:1;fill-rule:nonzero;stroke:none"
             d="m 1143.86,556.809 h 28.3477 v 31.1836 H 1143.86 Z" /><path
             id="path124"
             style="fill:#000000;fill-opacity:1;fill-rule:nonzero;stroke:none"
             d="m 1192.05,556.809 h 28.3438 v 31.1836 H 1192.05 Z" /><path
             id="path126"
             style="fill:#000000;fill-opacity:1;fill-rule:nonzero;stroke:none"
             d="m 1274.54,1146.13 h 31.1797 v 28.3477 H 1274.54 Z" /><path
             id="path128"
             style="fill:#000000;fill-opacity:1;fill-rule:nonzero;stroke:none"
             d="m 1274.54,1194.32 h 31.1797 v 28.3477 H 1274.54 Z" /><path
             id="path130"
             style="fill:#000000;fill-opacity:1;fill-rule:nonzero;stroke:none"
             d="m 1454.85,607.211 h 28.3477 v 31.1797 H 1454.85 Z" /><path
             id="path132"
             style="fill:#000000;fill-opacity:1;fill-rule:nonzero;stroke:none"
             d="m 1406.66,607.211 h 28.3477 v 31.1797 H 1406.66 Z" /><path
             id="path134"
             style="fill:#000000;fill-opacity:1;fill-rule:nonzero;stroke:none"
             d="m 1502.53,524.879 h 144 v 51.8398 h -144 z" /><path
             id="path136"
             style="fill:#000000;fill-opacity:1;fill-rule:nonzero;stroke:none"
             d="m 1502.53,596.879 h 144 v 51.8398 h -144 z" /><path
             id="path138"
             style="fill:#000000;fill-opacity:1;fill-rule:nonzero;stroke:none"
             d="m 1035.86,1183.21 h 28.3477 v 31.1797 H 1035.86 Z" /><path
             id="path140"
             style="fill:#000000;fill-opacity:1;fill-rule:nonzero;stroke:none"
             d="m 1084.05,1183.21 h 28.3438 v 31.1797 H 1084.05 Z" /><path
             id="path142"
             style="fill:#000000;fill-opacity:1;fill-rule:nonzero;stroke:none"
             d="m 1131.96,1192.9 h 28.3477 v 31.1836 H 1131.96 Z" /><path
             id="path144"
             style="fill:#000000;fill-opacity:1;fill-rule:nonzero;stroke:none"
             d="m 1131.96,1144.71 h 28.3477 v 31.1797 H 1131.96 Z" /><path
             id="path146"
             style="fill:#000000;fill-opacity:1;fill-rule:nonzero;stroke:none"
             d="m 1178.45,1184.63 h 31.1797 v 28.3477 H 1178.45 Z" /><path
             id="path148"
             style="fill:#000000;fill-opacity:1;fill-rule:nonzero;stroke:none"
             d="m 1226.64,1184.63 h 31.1797 v 28.3477 H 1226.64 Z" /><path
             id="path150"
             style="fill:#000000;fill-opacity:1;fill-rule:nonzero;stroke:none"
             d="m 783.863,1086.01 h 28.3477 v 31.1836 H 783.863 Z" /><path
             id="path152"
             style="fill:#000000;fill-opacity:1;fill-rule:nonzero;stroke:none"
             d="m 832.055,1086.01 h 28.3438 v 31.1836 H 832.055 Z" /><path
             id="path154"
             style="fill:#000000;fill-opacity:1;fill-rule:nonzero;stroke:none"
             d="m 1144.94,654.32 h 31.1797 v 28.3477 H 1144.94 Z" /><path
             id="path156"
             style="fill:#000000;fill-opacity:1;fill-rule:nonzero;stroke:none"
             d="m 1144.94,606.133 h 31.1797 v 28.3477 H 1144.94 Z" /><path
             id="path158"
             style="fill:#000000;fill-opacity:1;fill-rule:nonzero;stroke:none"
             d="m 976.211,392.398 h 51.8398 v 144 H 976.211 Z" /><path
             id="path160"
             style="fill:#000000;fill-opacity:1;fill-rule:nonzero;stroke:none"
             d="m 759.742,1138.93 h 31.1797 v 28.3438 H 759.742 Z" /><path
             id="path162"
             style="fill:#000000;fill-opacity:1;fill-rule:nonzero;stroke:none"
             d="m 759.742,1187.12 h 31.1797 v 28.3477 H 759.742 Z" /><path
             id="path164"
             style="fill:#000000;fill-opacity:1;fill-rule:nonzero;stroke:none"
             d="m 1318.57,776.16 h 62.6406 v 17.2813 H 1318.57 Z" /><path
             id="path166"
             style="fill:#000000;fill-opacity:1;fill-rule:nonzero;stroke:none"
             d="m 1318.57,812.16 h 62.6406 v 17.2813 H 1318.57 Z" /><path
             id="path168"
             style="fill:#000000;fill-opacity:1;fill-rule:nonzero;stroke:none"
             d="m 1318.57,848.16 h 62.6406 v 17.2813 H 1318.57 Z" /><path
             id="path170"
             style="fill:#000000;fill-opacity:1;fill-rule:nonzero;stroke:none"
             d="m 1318.57,884.16 h 62.6406 v 17.2813 H 1318.57 Z" /><path
             id="path172"
             style="fill:#000000;fill-opacity:1;fill-rule:nonzero;stroke:none"
             d="m 1170.25,884.16 h 62.6367 v 17.2813 H 1170.25 Z" /><path
             id="path174"
             style="fill:#000000;fill-opacity:1;fill-rule:nonzero;stroke:none"
             d="m 1170.25,848.16 h 62.6367 v 17.2813 H 1170.25 Z" /><path
             id="path176"
             style="fill:#000000;fill-opacity:1;fill-rule:nonzero;stroke:none"
             d="m 1170.25,812.16 h 62.6367 v 17.2813 H 1170.25 Z" /><path
             id="path178"
             style="fill:#000000;fill-opacity:1;fill-rule:nonzero;stroke:none"
             d="m 1170.25,776.16 h 62.6367 v 17.2813 H 1170.25 Z" /><path
             id="path180"
             style="fill:#000000;fill-opacity:1;fill-rule:nonzero;stroke:none"
             d="m 1476.14,1136.72 h 31.1836 v 28.3438 H 1476.14 Z" /><path
             id="path182"
             style="fill:#000000;fill-opacity:1;fill-rule:nonzero;stroke:none"
             d="m 1476.14,1088.53 h 31.1836 v 28.3477 H 1476.14 Z" /><path
             id="path184"
             style="fill:#000000;fill-opacity:1;fill-rule:nonzero;stroke:none"
             d="m 1323.86,1183.21 h 28.3477 v 31.1797 H 1323.86 Z" /><path
             id="path186"
             style="fill:#000000;fill-opacity:1;fill-rule:nonzero;stroke:none"
             d="m 1372.05,1183.21 h 28.3438 v 31.1797 H 1372.05 Z" /><path
             id="path188"
             style="fill:#000000;fill-opacity:1;fill-rule:nonzero;stroke:none"
             d="m 1419.96,1192.9 h 28.3477 v 31.1836 H 1419.96 Z" /><path
             id="path190"
             style="fill:#000000;fill-opacity:1;fill-rule:nonzero;stroke:none"
             d="m 1419.96,1144.71 h 28.3477 v 31.1797 H 1419.96 Z" /><path
             id="path192"
             style="fill:#000000;fill-opacity:1;fill-rule:nonzero;stroke:none"
             d="m 1466.45,1184.63 h 31.1797 v 28.3477 H 1466.45 Z" /><path
             id="path194"
             style="fill:#000000;fill-opacity:1;fill-rule:nonzero;stroke:none"
             d="m 1514.64,1184.63 h 31.1797 v 28.3477 H 1514.64 Z" /><path
             id="path196"
             style="fill:#000000;fill-opacity:1;fill-rule:nonzero;stroke:none"
             d="m 1501.65,794.41 h 28.3477 v 31.1797 H 1501.65 Z" /><path
             id="path198"
             style="fill:#000000;fill-opacity:1;fill-rule:nonzero;stroke:none"
             d="m 1453.46,794.41 h 28.3477 v 31.1797 H 1453.46 Z" /><path
             id="path200"
             style="fill:#000000;fill-opacity:1;fill-rule:nonzero;stroke:none"
             d="m 1404.14,798.32 h 31.1836 v 28.3477 H 1404.14 Z" /><path
             id="path202"
             style="fill:#000000;fill-opacity:1;fill-rule:nonzero;stroke:none"
             d="m 1404.14,750.133 h 31.1836 v 28.3477 H 1404.14 Z" /><path
             id="path204"
             style="fill:#000000;fill-opacity:1;fill-rule:nonzero;stroke:none"
             d="m 1188.14,1136.72 h 31.1836 v 28.3438 H 1188.14 Z" /><path
             id="path206"
             style="fill:#000000;fill-opacity:1;fill-rule:nonzero;stroke:none"
             d="m 1188.14,1088.53 h 31.1836 v 28.3477 H 1188.14 Z" /><path
             id="path208"
             style="fill:#000000;fill-opacity:1;fill-rule:nonzero;stroke:none"
             d="m 1429.65,1096.81 h 28.3477 v 31.1836 H 1429.65 Z" /><path
             id="path210"
             style="fill:#000000;fill-opacity:1;fill-rule:nonzero;stroke:none"
             d="m 1381.46,1096.81 h 28.3477 v 31.1836 H 1381.46 Z" /><path
             id="path212"
             style="fill:#000000;fill-opacity:1;fill-rule:nonzero;stroke:none"
             d="m 1333.56,1087.11 h 28.3477 v 31.1836 H 1333.56 Z" /><path
             id="path214"
             style="fill:#000000;fill-opacity:1;fill-rule:nonzero;stroke:none"
             d="m 1333.56,1135.3 h 28.3477 v 31.1797 H 1333.56 Z" /><path
             id="path216"
             style="fill:#000000;fill-opacity:1;fill-rule:nonzero;stroke:none"
             d="m 1284.23,1098.23 h 31.1836 v 28.3477 H 1284.23 Z" /><path
             id="path218"
             style="fill:#000000;fill-opacity:1;fill-rule:nonzero;stroke:none"
             d="m 1236.05,1098.23 h 31.1797 v 28.3477 H 1236.05 Z" /><path
             id="path220"
             style="fill:#000000;fill-opacity:1;fill-rule:nonzero;stroke:none"
             d="m 1292.85,927.609 h 28.3477 v 31.1797 H 1292.85 Z" /><path
             id="path222"
             style="fill:#000000;fill-opacity:1;fill-rule:nonzero;stroke:none"
             d="m 1244.66,927.609 h 28.3477 v 31.1797 H 1244.66 Z" /><path
             id="path224"
             style="fill:#000000;fill-opacity:1;fill-rule:nonzero;stroke:none"
             d="m 1112.54,848.723 h 31.1797 v 28.3438 H 1112.54 Z" /><path
             id="path226"
             style="fill:#000000;fill-opacity:1;fill-rule:nonzero;stroke:none"
             d="m 1112.54,800.531 h 31.1797 v 28.3477 H 1112.54 Z" /><path
             id="path228"
             style="fill:#000000;fill-opacity:1;fill-rule:nonzero;stroke:none"
             d="m 1491.96,930.105 h 28.3477 v 31.1797 H 1491.96 Z" /><path
             id="path230"
             style="fill:#000000;fill-opacity:1;fill-rule:nonzero;stroke:none"
             d="m 1491.96,881.914 h 28.3477 v 31.1836 H 1491.96 Z" /><path
             id="path232"
             style="fill:#000000;fill-opacity:1;fill-rule:nonzero;stroke:none"
             d="m 1395.86,888.008 h 28.3477 v 31.1836 H 1395.86 Z" /><path
             id="path234"
             style="fill:#000000;fill-opacity:1;fill-rule:nonzero;stroke:none"
             d="m 1444.05,888.008 h 28.3438 v 31.1836 H 1444.05 Z" /><path
             id="path236"
             style="fill:#000000;fill-opacity:1;fill-rule:nonzero;stroke:none"
             d="m 1291.44,716.625 h 31.1797 v 28.3477 H 1291.44 Z" /><path
             id="path238"
             style="fill:#000000;fill-opacity:1;fill-rule:nonzero;stroke:none"
             d="m 1243.25,716.625 h 31.1836 v 28.3477 H 1243.25 Z" /><path
             id="path240"
             style="fill:#000000;fill-opacity:1;fill-rule:nonzero;stroke:none"
             d="m 1292.85,988.809 h 28.3477 v 31.1836 H 1292.85 Z" /><path
             id="path242"
             style="fill:#000000;fill-opacity:1;fill-rule:nonzero;stroke:none"
             d="m 1244.66,988.809 h 28.3477 v 31.1836 H 1244.66 Z" /><path
             id="path244"
             style="fill:#000000;fill-opacity:1;fill-rule:nonzero;stroke:none"
             d="m 602.445,551.027 h 31.1836 v 28.3477 H 602.445 Z" /><path
             id="path246"
             style="fill:#000000;fill-opacity:1;fill-rule:nonzero;stroke:none"
             d="m 650.637,551.027 h 31.1797 v 28.3477 H 650.637 Z" /><path
             id="path248"
             style="fill:#000000;fill-opacity:1;fill-rule:nonzero;stroke:none"
             d="m 602.445,608.625 h 31.1836 v 28.3477 H 602.445 Z" /><path
             id="path250"
             style="fill:#000000;fill-opacity:1;fill-rule:nonzero;stroke:none"
             d="m 650.637,608.625 h 31.1797 v 28.3477 H 650.637 Z" /><path
             id="path252"
             style="fill:#000000;fill-opacity:1;fill-rule:nonzero;stroke:none"
             d="m 1314.61,399.602 h 51.8398 v 144 H 1314.61 Z" /><path
             id="path254"
             style="fill:#000000;fill-opacity:1;fill-rule:nonzero;stroke:none"
             d="m 1408.21,399.602 h 51.8398 v 144 H 1408.21 Z" /><path
             id="path256"
             style="fill:#000000;fill-opacity:1;fill-rule:nonzero;stroke:none"
             d="m 954.398,697.5 c 0,12.406 -10.058,22.465 -22.464,22.465 -12.407,0 -22.465,-10.059 -22.465,-22.465 0,-12.406 10.058,-22.465 22.465,-22.465 12.406,0 22.464,10.059 22.464,22.465" /><path
             id="path258"
             style="fill:#000000;fill-opacity:1;fill-rule:nonzero;stroke:none"
             d="m 684.398,670.5 c 0,12.406 -10.058,22.465 -22.464,22.465 -12.407,0 -22.465,-10.059 -22.465,-22.465 0,-12.406 10.058,-22.465 22.465,-22.465 12.406,0 22.464,10.059 22.464,22.465" /><path
             id="path260"
             style="fill:#000000;fill-opacity:1;fill-rule:nonzero;stroke:none"
             d="m 1593.4,490.5 c 0,12.406 -10.06,22.465 -22.47,22.465 -12.4,0 -22.46,-10.059 -22.46,-22.465 0,-12.406 10.06,-22.465 22.46,-22.465 12.41,0 22.47,10.059 22.47,22.465" /><path
             id="path262"
             style="fill:#000000;fill-opacity:1;fill-rule:nonzero;stroke:none"
             d="m 1593.4,756 c 0,12.406 -10.06,22.465 -22.47,22.465 -12.4,0 -22.46,-10.059 -22.46,-22.465 0,-12.406 10.06,-22.465 22.46,-22.465 12.41,0 22.47,10.059 22.47,22.465" /><path
             id="path264"
             style="fill:#000000;fill-opacity:1;fill-rule:nonzero;stroke:none"
             d="m 1138.9,1116 c 0,12.41 -10.06,22.46 -22.47,22.46 -12.4,0 -22.46,-10.05 -22.46,-22.46 0,-12.41 10.06,-22.46 22.46,-22.46 12.41,0 22.47,10.05 22.47,22.46" /><path
             id="path266"
             style="fill:#000000;fill-opacity:1;fill-rule:nonzero;stroke:none"
             d="m 1210.9,1044 c 0,12.41 -10.06,22.46 -22.47,22.46 -12.4,0 -22.46,-10.05 -22.46,-22.46 0,-12.41 10.06,-22.46 22.46,-22.46 12.41,0 22.47,10.05 22.47,22.46" /><path
             id="path268"
             style="fill:#000000;fill-opacity:1;fill-rule:nonzero;stroke:none"
             d="m 981.398,900 c 0,12.406 -10.058,22.465 -22.464,22.465 -12.407,0 -22.465,-10.059 -22.465,-22.465 0,-12.406 10.058,-22.465 22.465,-22.465 12.406,0 22.464,10.059 22.464,22.465" /><path
             id="path270"
             style="fill:#000000;fill-opacity:1;fill-rule:nonzero;stroke:none"
             d="m 742.898,1156.5 c 0,12.41 -10.058,22.46 -22.464,22.46 -12.407,0 -22.465,-10.05 -22.465,-22.46 0,-12.41 10.058,-22.46 22.465,-22.46 12.406,0 22.464,10.05 22.464,22.46" /><path
             id="path272"
             style="fill:#000000;fill-opacity:1;fill-rule:nonzero;stroke:none"
             d="m 742.898,940.5 c 0,12.406 -10.058,22.465 -22.464,22.465 -12.407,0 -22.465,-10.059 -22.465,-22.465 0,-12.406 10.058,-22.465 22.465,-22.465 12.406,0 22.464,10.059 22.464,22.465" /><path
             id="path274"
             style="fill:#000000;fill-opacity:1;fill-rule:nonzero;stroke:none"
             d="m 1048.9,967.5 c 0,12.406 -10.06,22.465 -22.47,22.465 -12.4,0 -22.46,-10.059 -22.46,-22.465 0,-12.406 10.06,-22.465 22.46,-22.465 12.41,0 22.47,10.059 22.47,22.465" /><path
             id="path276"
             style="fill:#000000;fill-opacity:1;fill-rule:nonzero;stroke:none"
             d="m 1107.4,783 c 0,12.406 -10.06,22.465 -22.47,22.465 -12.4,0 -22.46,-10.059 -22.46,-22.465 0,-12.406 10.06,-22.465 22.46,-22.465 12.41,0 22.47,10.059 22.47,22.465" /><path
             id="path278"
             style="fill:#000000;fill-opacity:1;fill-rule:nonzero;stroke:none"
             d="m 580.898,621 c 0,12.406 -10.058,22.465 -22.464,22.465 -12.407,0 -22.465,-10.059 -22.465,-22.465 0,-12.406 10.058,-22.465 22.465,-22.465 12.406,0 22.464,10.059 22.464,22.465" /><path
             id="path280"
             style="fill:#000000;fill-opacity:1;fill-rule:nonzero;stroke:none"
             d="m 976.898,819 c 0,12.406 -10.058,22.465 -22.464,22.465 -12.407,0 -22.465,-10.059 -22.465,-22.465 0,-12.406 10.058,-22.465 22.465,-22.465 12.406,0 22.464,10.059 22.464,22.465" /><path
             id="path282"
             style="fill:#000000;fill-opacity:1;fill-rule:nonzero;stroke:none"
             d="m 679.898,850.5 c 0,12.406 -10.058,22.465 -22.464,22.465 -12.407,0 -22.465,-10.059 -22.465,-22.465 0,-12.406 10.058,-22.465 22.465,-22.465 12.406,0 22.464,10.059 22.464,22.465" /><path
             id="path284"
             style="fill:#000000;fill-opacity:1;fill-rule:nonzero;stroke:none"
             d="m 1381.9,945 c 0,12.406 -10.06,22.465 -22.47,22.465 -12.4,0 -22.46,-10.059 -22.46,-22.465 0,-12.406 10.06,-22.465 22.46,-22.465 12.41,0 22.47,10.059 22.47,22.465" /><path
             id="path286"
             style="fill:#000000;fill-opacity:1;fill-rule:nonzero;stroke:none"
             d="m 1111.9,945 c 0,12.406 -10.06,22.465 -22.47,22.465 -12.4,0 -22.46,-10.059 -22.46,-22.465 0,-12.406 10.06,-22.465 22.46,-22.465 12.41,0 22.47,10.059 22.47,22.465" /><path
             id="path288"
             style="fill:#000000;fill-opacity:1;fill-rule:nonzero;stroke:none"
             d="m 675.398,796.5 c 0,12.406 -10.058,22.465 -22.464,22.465 -12.407,0 -22.465,-10.059 -22.465,-22.465 0,-12.406 10.058,-22.465 22.465,-22.465 12.406,0 22.464,10.059 22.464,22.465" /><path
             id="path290"
             style="fill:#000000;fill-opacity:1;fill-rule:nonzero;stroke:none"
             d="m 1084.9,526.5 c 0,12.406 -10.06,22.465 -22.47,22.465 -12.4,0 -22.46,-10.059 -22.46,-22.465 0,-12.406 10.06,-22.465 22.46,-22.465 12.41,0 22.47,10.059 22.47,22.465" /><path
             id="path292"
             style="fill:#000000;fill-opacity:1;fill-rule:nonzero;stroke:none"
             d="m 652.898,715.5 c 0,12.406 -10.058,22.465 -22.464,22.465 -12.407,0 -22.465,-10.059 -22.465,-22.465 0,-12.406 10.058,-22.465 22.465,-22.465 12.406,0 22.464,10.059 22.464,22.465" /><path
             id="path294"
             style="fill:#000000;fill-opacity:1;fill-rule:nonzero;stroke:none"
             d="m 945.398,589.5 c 0,12.406 -10.058,22.465 -22.464,22.465 -12.407,0 -22.465,-10.059 -22.465,-22.465 0,-12.406 10.058,-22.465 22.465,-22.465 12.406,0 22.464,10.059 22.464,22.465" /><path
             id="path296"
             style="fill:#000000;fill-opacity:1;fill-rule:nonzero;stroke:none"
             d="m 1017.4,738 c 0,12.406 -10.06,22.465 -22.466,22.465 -12.407,0 -22.465,-10.059 -22.465,-22.465 0,-12.406 10.058,-22.465 22.465,-22.465 12.406,0 22.466,10.059 22.466,22.465" /><path
             id="path298"
             style="fill:#000000;fill-opacity:1;fill-rule:nonzero;stroke:none"
             d="m 1233.4,621 c 0,12.406 -10.06,22.465 -22.47,22.465 -12.4,0 -22.46,-10.059 -22.46,-22.465 0,-12.406 10.06,-22.465 22.46,-22.465 12.41,0 22.47,10.059 22.47,22.465" /><path
             id="path300"
             style="fill:#000000;fill-opacity:1;fill-rule:nonzero;stroke:none"
             d="m 904.898,630 c 0,12.406 -10.058,22.465 -22.464,22.465 -12.407,0 -22.465,-10.059 -22.465,-22.465 0,-12.406 10.058,-22.465 22.465,-22.465 12.406,0 22.464,10.059 22.464,22.465" /><path
             id="path302"
             style="fill:#000000;fill-opacity:1;fill-rule:nonzero;stroke:none"
             d="m 1278.4,580.5 c 0,12.406 -10.06,22.465 -22.47,22.465 -12.4,0 -22.46,-10.059 -22.46,-22.465 0,-12.406 10.06,-22.465 22.46,-22.465 12.41,0 22.47,10.059 22.47,22.465" /><path
             id="path304"
             style="fill:#000000;fill-opacity:1;fill-rule:nonzero;stroke:none"
             d="m 1431.4,576 c 0,12.406 -10.06,22.465 -22.47,22.465 -12.4,0 -22.46,-10.059 -22.46,-22.465 0,-12.406 10.06,-22.465 22.46,-22.465 12.41,0 22.47,10.059 22.47,22.465" /><path
             id="path306"
             style="fill:#000000;fill-opacity:1;fill-rule:nonzero;stroke:none"
             d="m 796.898,940.5 c 0,12.406 -10.058,22.465 -22.464,22.465 -12.407,0 -22.465,-10.059 -22.465,-22.465 0,-12.406 10.058,-22.465 22.465,-22.465 12.406,0 22.464,10.059 22.464,22.465" /><path
             id="path308"
             style="fill:#000000;fill-opacity:1;fill-rule:nonzero;stroke:none"
             d="m 1134.4,657 c 0,12.406 -10.06,22.465 -22.47,22.465 -12.4,0 -22.46,-10.059 -22.46,-22.465 0,-12.406 10.06,-22.465 22.46,-22.465 12.41,0 22.47,10.059 22.47,22.465" /><path
             id="path310"
             style="fill:#000000;fill-opacity:1;fill-rule:nonzero;stroke:none"
             d="m 819.398,634.5 c 0,12.406 -10.058,22.465 -22.464,22.465 -12.407,0 -22.465,-10.059 -22.465,-22.465 0,-12.406 10.058,-22.465 22.465,-22.465 12.406,0 22.464,10.059 22.464,22.465" /><path
             id="path312"
             style="fill:#000000;fill-opacity:1;fill-rule:nonzero;stroke:none"
             d="m 1111.9,1066.5 c 0,12.41 -10.06,22.46 -22.47,22.46 -12.4,0 -22.46,-10.05 -22.46,-22.46 0,-12.41 10.06,-22.46 22.46,-22.46 12.41,0 22.47,10.05 22.47,22.46" /><path
             id="path314"
             style="fill:#000000;fill-opacity:1;fill-rule:nonzero;stroke:none"
             d="m 859.898,963 c 0,12.406 -10.058,22.465 -22.464,22.465 -12.407,0 -22.465,-10.059 -22.465,-22.465 0,-12.406 10.058,-22.465 22.465,-22.465 12.406,0 22.464,10.059 22.464,22.465" /><path
             id="path316"
             style="fill:#000000;fill-opacity:1;fill-rule:nonzero;stroke:none"
             d="m 1053.4,778.5 c 0,12.406 -10.06,22.465 -22.47,22.465 -12.4,0 -22.46,-10.059 -22.46,-22.465 0,-12.406 10.06,-22.465 22.46,-22.465 12.41,0 22.47,10.059 22.47,22.465" /><path
             id="path318"
             style="fill:#000000;fill-opacity:1;fill-rule:nonzero;stroke:none"
             d="m 1377.4,733.5 c 0,12.406 -10.06,22.465 -22.47,22.465 -12.4,0 -22.46,-10.059 -22.46,-22.465 0,-12.406 10.06,-22.465 22.46,-22.465 12.41,0 22.47,10.059 22.47,22.465" /><path
             id="path320"
             style="fill:#000000;fill-opacity:1;fill-rule:nonzero;stroke:none"
             d="m 1363.9,616.5 c 0,12.406 -10.06,22.465 -22.47,22.465 -12.4,0 -22.46,-10.059 -22.46,-22.465 0,-12.406 10.06,-22.465 22.46,-22.465 12.41,0 22.47,10.059 22.47,22.465" /><path
             id="path322"
             style="fill:#000000;fill-opacity:1;fill-rule:nonzero;stroke:none"
             d="m 1489.9,576 c 0,12.406 -10.06,22.465 -22.47,22.465 -12.4,0 -22.46,-10.059 -22.46,-22.465 0,-12.406 10.06,-22.465 22.46,-22.465 12.41,0 22.47,10.059 22.47,22.465" /><path
             id="path324"
             style="fill:#000000;fill-opacity:1;fill-rule:nonzero;stroke:none"
             d="m 1102.9,846 c 0,12.406 -10.06,22.465 -22.47,22.465 -12.4,0 -22.46,-10.059 -22.46,-22.465 0,-12.406 10.06,-22.465 22.46,-22.465 12.41,0 22.47,10.059 22.47,22.465" /><path
             id="path326"
             style="fill:#000000;fill-opacity:1;fill-rule:nonzero;stroke:none"
             d="m 1476.4,724.5 c 0,12.406 -10.06,22.465 -22.47,22.465 -12.4,0 -22.46,-10.059 -22.46,-22.465 0,-12.406 10.06,-22.465 22.46,-22.465 12.41,0 22.47,10.059 22.47,22.465" /><path
             id="path328"
             style="fill:#000000;fill-opacity:1;fill-rule:nonzero;stroke:none"
             d="m 1233.4,990 c 0,12.41 -10.06,22.46 -22.47,22.46 -12.4,0 -22.46,-10.05 -22.46,-22.46 0,-12.406 10.06,-22.465 22.46,-22.465 12.41,0 22.47,10.059 22.47,22.465" /><path
             id="path330"
             style="fill:#000000;fill-opacity:1;fill-rule:nonzero;stroke:none"
             d="m 531.184,1324.66 c 0,31.43 -25.485,56.92 -56.918,56.92 -31.434,0 -56.922,-25.49 -56.922,-56.92 0,-31.43 25.488,-56.92 56.922,-56.92 31.433,0 56.918,25.49 56.918,56.92" /><path
             id="path332"
             style="fill:#000000;fill-opacity:1;fill-rule:nonzero;stroke:none"
             d="m 531.184,332.531 c 0,31.434 -25.485,56.922 -56.918,56.922 -31.434,0 -56.922,-25.488 -56.922,-56.922 0,-31.433 25.488,-56.918 56.922,-56.918 31.433,0 56.918,25.485 56.918,56.918" /><path
             id="path334"
             style="fill:#000000;fill-opacity:1;fill-rule:nonzero;stroke:none"
             d="m 1523.31,342 c 0,31.434 -25.49,56.918 -56.92,56.918 -31.43,0 -56.92,-25.484 -56.92,-56.918 0,-31.434 25.49,-56.918 56.92,-56.918 31.43,0 56.92,25.484 56.92,56.918" /><path
             id="path336"
             style="fill:#000000;fill-opacity:1;fill-rule:nonzero;stroke:none"
             d="m 1523.31,1324.66 c 0,31.43 -25.49,56.92 -56.92,56.92 -31.43,0 -56.92,-25.49 -56.92,-56.92 0,-31.43 25.49,-56.92 56.92,-56.92 31.43,0 56.92,25.49 56.92,56.92" /></g></g></g></g></svg>