<?xml version="1.0" encoding="UTF-8" standalone="no"?>
<svg
   xmlns:dc="http://purl.org/dc/elements/1.1/"
   xmlns:cc="http://creativecommons.org/ns#"
   xmlns:rdf="http://www.w3.org/1999/02/22-rdf-syntax-ns#"
   xmlns:svg="http://www.w3.org/2000/svg"
   xmlns="http://www.w3.org/2000/svg"
   viewBox="0 0 816 1056"
   height="1056"
   width="816"
   xml:space="preserve"
   id="svg2"
   version="1.1"><metadata
     id="metadata8"><rdf:RDF><cc:Work
         rdf:about=""><dc:format>image/svg+xml</dc:format><dc:type
           rdf:resource="http://purl.org/dc/dcmitype/StillImage" /></cc:Work></rdf:RDF></metadata><defs
     id="defs6"><clipPath
       id="clipPath20"
       clipPathUnits="userSpaceOnUse"><path
         id="path18"
         d="M 180,180 V 7920 H 5760 V 180 Z" /></clipPath></defs><g
     transform="matrix(1.3333333,0,0,-1.3333333,0,1056)"
     id="g10"><g
       transform="scale(0.1)"
       id="g12"><g
         id="g14"><g
           clip-path="url(#clipPath20)"
           id="g16"><path
             id="path22"
             style="fill:#000000;fill-opacity:1;fill-rule:nonzero;stroke:none"
             d="m 848.16,1140.84 h 17.2813 v 62.6406 H 848.16 Z" /><path
             id="path24"
             style="fill:#000000;fill-opacity:1;fill-rule:nonzero;stroke:none"
             d="m 812.16,1140.84 h 17.2813 v 62.6406 H 812.16 Z" /><path
             id="path26"
             style="fill:#000000;fill-opacity:1;fill-rule:nonzero;stroke:none"
             d="m 776.16,1140.84 h 17.2813 v 62.6406 H 776.16 Z" /><path
             id="path28"
             style="fill:#000000;fill-opacity:1;fill-rule:nonzero;stroke:none"
             d="m 740.16,1140.84 h 17.2813 v 62.6406 H 740.16 Z" /><path
             id="path30"
             style="fill:#000000;fill-opacity:1;fill-rule:nonzero;stroke:none"
             d="m 740.16,992.52 h 17.2813 v 62.6406 H 740.16 Z" /><path
             id="path32"
             style="fill:#000000;fill-opacity:1;fill-rule:nonzero;stroke:none"
             d="m 776.16,992.52 h 17.2813 v 62.6406 H 776.16 Z" /><path
             id="path34"
             style="fill:#000000;fill-opacity:1;fill-rule:nonzero;stroke:none"
             d="m 812.16,992.52 h 17.2813 v 62.6406 H 812.16 Z" /><path
             id="path36"
             style="fill:#000000;fill-opacity:1;fill-rule:nonzero;stroke:none"
             d="m 848.16,992.52 h 17.2813 v 62.6406 H 848.16 Z" /><path
             id="path38"
             style="fill:#000000;fill-opacity:1;fill-rule:nonzero;stroke:none"
             d="m 555.223,887.895 h 34.0156 v 17.0078 H 555.223 Z" /><path
             id="path40"
             style="fill:#000000;fill-opacity:1;fill-rule:nonzero;stroke:none"
             d="m 555.223,851.895 h 34.0156 v 17.0078 H 555.223 Z" /><path
             id="path42"
             style="fill:#000000;fill-opacity:1;fill-rule:nonzero;stroke:none"
             d="m 555.223,815.895 h 34.0156 v 17.0078 H 555.223 Z" /><path
             id="path44"
             style="fill:#000000;fill-opacity:1;fill-rule:nonzero;stroke:none"
             d="m 555.223,779.895 h 34.0156 v 17.0078 H 555.223 Z" /><path
             id="path46"
             style="fill:#000000;fill-opacity:1;fill-rule:nonzero;stroke:none"
             d="m 555.223,743.895 h 34.0156 v 17.0078 H 555.223 Z" /><path
             id="path48"
             style="fill:#000000;fill-opacity:1;fill-rule:nonzero;stroke:none"
             d="m 555.223,707.895 h 34.0156 v 17.0078 H 555.223 Z" /><path
             id="path50"
             style="fill:#000000;fill-opacity:1;fill-rule:nonzero;stroke:none"
             d="m 555.223,671.895 h 34.0156 v 17.0078 H 555.223 Z" /><path
             id="path52"
             style="fill:#000000;fill-opacity:1;fill-rule:nonzero;stroke:none"
             d="m 713.961,671.895 h 34.0156 v 17.0078 H 713.961 Z" /><path
             id="path54"
             style="fill:#000000;fill-opacity:1;fill-rule:nonzero;stroke:none"
             d="m 713.961,707.895 h 34.0156 v 17.0078 H 713.961 Z" /><path
             id="path56"
             style="fill:#000000;fill-opacity:1;fill-rule:nonzero;stroke:none"
             d="m 713.961,743.895 h 34.0156 v 17.0078 H 713.961 Z" /><path
             id="path58"
             style="fill:#000000;fill-opacity:1;fill-rule:nonzero;stroke:none"
             d="m 713.961,779.895 h 34.0156 v 17.0078 H 713.961 Z" /><path
             id="path60"
             style="fill:#000000;fill-opacity:1;fill-rule:nonzero;stroke:none"
             d="m 713.961,815.895 h 34.0156 v 17.0078 H 713.961 Z" /><path
             id="path62"
             style="fill:#000000;fill-opacity:1;fill-rule:nonzero;stroke:none"
             d="m 713.961,851.895 h 34.0156 v 17.0078 H 713.961 Z" /><path
             id="path64"
             style="fill:#000000;fill-opacity:1;fill-rule:nonzero;stroke:none"
             d="m 713.961,887.895 h 34.0156 v 17.0078 H 713.961 Z" /><path
             id="path66"
             style="fill:#000000;fill-opacity:1;fill-rule:nonzero;stroke:none"
             d="m 414.227,849.516 h 28.3477 v 31.1797 H 414.227 Z" /><path
             id="path68"
             style="fill:#000000;fill-opacity:1;fill-rule:nonzero;stroke:none"
             d="m 414.227,897.703 h 28.3477 v 31.1836 H 414.227 Z" /><path
             id="path70"
             style="fill:#000000;fill-opacity:1;fill-rule:nonzero;stroke:none"
             d="m 412.809,809.121 h 31.1836 v 28.3477 H 412.809 Z" /><path
             id="path72"
             style="fill:#000000;fill-opacity:1;fill-rule:nonzero;stroke:none"
             d="m 412.809,760.934 h 31.1836 v 28.3438 H 412.809 Z" /><path
             id="path74"
             style="fill:#000000;fill-opacity:1;fill-rule:nonzero;stroke:none"
             d="m 421.199,392.398 h 72 v 144 h -72 z" /><path
             id="path76"
             style="fill:#000000;fill-opacity:1;fill-rule:nonzero;stroke:none"
             d="m 514.801,392.398 h 72 v 144 h -72 z" /><path
             id="path78"
             style="fill:#000000;fill-opacity:1;fill-rule:nonzero;stroke:none"
             d="m 392.398,1069.2 h 144 v 72 h -144 z" /><path
             id="path80"
             style="fill:#000000;fill-opacity:1;fill-rule:nonzero;stroke:none"
             d="m 757.332,938.41 h 28.3477 v 31.1797 H 757.332 Z" /><path
             id="path82"
             style="fill:#000000;fill-opacity:1;fill-rule:nonzero;stroke:none"
             d="m 805.52,938.41 h 28.3477 v 31.1797 H 805.52 Z" /><path
             id="path84"
             style="fill:#000000;fill-opacity:1;fill-rule:nonzero;stroke:none"
             d="m 884.41,1107.92 h 31.1797 v 28.3477 H 884.41 Z" /><path
             id="path86"
             style="fill:#000000;fill-opacity:1;fill-rule:nonzero;stroke:none"
             d="m 884.41,1059.73 h 31.1797 v 28.3477 H 884.41 Z" /><path
             id="path88"
             style="fill:#000000;fill-opacity:1;fill-rule:nonzero;stroke:none"
             d="m 392.398,968.398 h 144 v 72 h -144 z" /><path
             id="path90"
             style="fill:#000000;fill-opacity:1;fill-rule:nonzero;stroke:none"
             d="m 550.715,1087.43 h 31.1797 v 28.3477 H 550.715 Z" /><path
             id="path92"
             style="fill:#000000;fill-opacity:1;fill-rule:nonzero;stroke:none"
             d="m 598.902,1087.43 h 31.1836 v 28.3477 H 598.902 Z" /><path
             id="path94"
             style="fill:#000000;fill-opacity:1;fill-rule:nonzero;stroke:none"
             d="m 608.398,392.398 h 72 v 144 h -72 z" /><path
             id="path96"
             style="fill:#000000;fill-opacity:1;fill-rule:nonzero;stroke:none"
             d="m 702,392.398 h 72 v 144 h -72 z" /><path
             id="path98"
             style="fill:#000000;fill-opacity:1;fill-rule:nonzero;stroke:none"
             d="m 881.914,1001.03 h 31.1836 v 28.3477 H 881.914 Z" /><path
             id="path100"
             style="fill:#000000;fill-opacity:1;fill-rule:nonzero;stroke:none"
             d="m 930.105,1001.03 h 31.1797 v 28.3477 H 930.105 Z" /><path
             id="path102"
             style="fill:#000000;fill-opacity:1;fill-rule:nonzero;stroke:none"
             d="m 560.41,987.73 h 31.1797 v 28.3477 H 560.41 Z" /><path
             id="path104"
             style="fill:#000000;fill-opacity:1;fill-rule:nonzero;stroke:none"
             d="m 560.41,1035.92 h 31.1797 v 28.3477 H 560.41 Z" /><path
             id="path106"
             style="fill:#000000;fill-opacity:1;fill-rule:nonzero;stroke:none"
             d="m 888.008,627.73 h 31.1836 v 28.3477 H 888.008 Z" /><path
             id="path108"
             style="fill:#000000;fill-opacity:1;fill-rule:nonzero;stroke:none"
             d="m 888.008,675.922 h 31.1836 v 28.3477 H 888.008 Z" /><path
             id="path110"
             style="fill:#000000;fill-opacity:1;fill-rule:nonzero;stroke:none"
             d="m 823.211,675.922 h 31.1797 v 28.3477 H 823.211 Z" /><path
             id="path112"
             style="fill:#000000;fill-opacity:1;fill-rule:nonzero;stroke:none"
             d="m 823.211,627.73 h 31.1797 v 28.3477 H 823.211 Z" /><path
             id="path114"
             style="fill:#000000;fill-opacity:1;fill-rule:nonzero;stroke:none"
             d="m 621.609,987.73 h 31.1797 v 28.3477 H 621.609 Z" /><path
             id="path116"
             style="fill:#000000;fill-opacity:1;fill-rule:nonzero;stroke:none"
             d="m 621.609,1035.92 h 31.1797 v 28.3477 H 621.609 Z" /><path
             id="path118"
             style="fill:#000000;fill-opacity:1;fill-rule:nonzero;stroke:none"
             d="m 961.199,392.398 h 72 v 144 h -72 z" /><path
             id="path120"
             style="fill:#000000;fill-opacity:1;fill-rule:nonzero;stroke:none"
             d="m 1047.6,392.398 h 72 v 144 h -72 z" /><path
             id="path122"
             style="fill:#000000;fill-opacity:1;fill-rule:nonzero;stroke:none"
             d="m 1002.13,556.809 h 28.3477 v 31.1836 H 1002.13 Z" /><path
             id="path124"
             style="fill:#000000;fill-opacity:1;fill-rule:nonzero;stroke:none"
             d="m 1050.32,556.809 h 28.3477 v 31.1836 H 1050.32 Z" /><path
             id="path126"
             style="fill:#000000;fill-opacity:1;fill-rule:nonzero;stroke:none"
             d="m 1132.81,1146.13 h 31.1836 v 28.3477 H 1132.81 Z" /><path
             id="path128"
             style="fill:#000000;fill-opacity:1;fill-rule:nonzero;stroke:none"
             d="m 1132.81,1194.32 h 31.1836 v 28.3477 H 1132.81 Z" /><path
             id="path130"
             style="fill:#000000;fill-opacity:1;fill-rule:nonzero;stroke:none"
             d="m 1313.12,607.211 h 28.3477 v 31.1797 H 1313.12 Z" /><path
             id="path132"
             style="fill:#000000;fill-opacity:1;fill-rule:nonzero;stroke:none"
             d="m 1264.93,607.211 h 28.3438 v 31.1797 H 1264.93 Z" /><path
             id="path134"
             style="fill:#000000;fill-opacity:1;fill-rule:nonzero;stroke:none"
             d="m 1360.8,524.879 h 144 v 51.8398 h -144 z" /><path
             id="path136"
             style="fill:#000000;fill-opacity:1;fill-rule:nonzero;stroke:none"
             d="m 1360.8,596.879 h 144 v 51.8398 h -144 z" /><path
             id="path138"
             style="fill:#000000;fill-opacity:1;fill-rule:nonzero;stroke:none"
             d="m 894.133,1183.21 h 28.3477 v 31.1797 H 894.133 Z" /><path
             id="path140"
             style="fill:#000000;fill-opacity:1;fill-rule:nonzero;stroke:none"
             d="m 942.32,1183.21 h 28.3477 v 31.1797 H 942.32 Z" /><path
             id="path142"
             style="fill:#000000;fill-opacity:1;fill-rule:nonzero;stroke:none"
             d="m 990.227,1192.9 h 28.3477 v 31.1836 H 990.227 Z" /><path
             id="path144"
             style="fill:#000000;fill-opacity:1;fill-rule:nonzero;stroke:none"
             d="m 990.227,1144.71 h 28.3477 v 31.1797 H 990.227 Z" /><path
             id="path146"
             style="fill:#000000;fill-opacity:1;fill-rule:nonzero;stroke:none"
             d="m 1036.71,1184.63 h 31.1797 v 28.3477 H 1036.71 Z" /><path
             id="path148"
             style="fill:#000000;fill-opacity:1;fill-rule:nonzero;stroke:none"
             d="m 1084.9,1184.63 h 31.1836 v 28.3477 H 1084.9 Z" /><path
             id="path150"
             style="fill:#000000;fill-opacity:1;fill-rule:nonzero;stroke:none"
             d="m 642.133,1086.01 h 28.3477 v 31.1836 H 642.133 Z" /><path
             id="path152"
             style="fill:#000000;fill-opacity:1;fill-rule:nonzero;stroke:none"
             d="m 690.32,1086.01 h 28.3477 v 31.1836 H 690.32 Z" /><path
             id="path154"
             style="fill:#000000;fill-opacity:1;fill-rule:nonzero;stroke:none"
             d="m 1003.21,654.32 h 31.1797 v 28.3477 H 1003.21 Z" /><path
             id="path156"
             style="fill:#000000;fill-opacity:1;fill-rule:nonzero;stroke:none"
             d="m 1003.21,606.133 h 31.1797 v 28.3477 H 1003.21 Z" /><path
             id="path158"
             style="fill:#000000;fill-opacity:1;fill-rule:nonzero;stroke:none"
             d="m 834.48,392.398 h 51.8398 v 144 H 834.48 Z" /><path
             id="path160"
             style="fill:#000000;fill-opacity:1;fill-rule:nonzero;stroke:none"
             d="m 618.008,1138.93 h 31.1836 v 28.3438 H 618.008 Z" /><path
             id="path162"
             style="fill:#000000;fill-opacity:1;fill-rule:nonzero;stroke:none"
             d="m 618.008,1187.12 h 31.1836 v 28.3477 H 618.008 Z" /><path
             id="path164"
             style="fill:#000000;fill-opacity:1;fill-rule:nonzero;stroke:none"
             d="m 1176.84,776.16 h 62.6406 v 17.2813 H 1176.84 Z" /><path
             id="path166"
             style="fill:#000000;fill-opacity:1;fill-rule:nonzero;stroke:none"
             d="m 1176.84,812.16 h 62.6406 v 17.2813 H 1176.84 Z" /><path
             id="path168"
             style="fill:#000000;fill-opacity:1;fill-rule:nonzero;stroke:none"
             d="m 1176.84,848.16 h 62.6406 v 17.2813 H 1176.84 Z" /><path
             id="path170"
             style="fill:#000000;fill-opacity:1;fill-rule:nonzero;stroke:none"
             d="m 1176.84,884.16 h 62.6406 v 17.2813 H 1176.84 Z" /><path
             id="path172"
             style="fill:#000000;fill-opacity:1;fill-rule:nonzero;stroke:none"
             d="m 1028.52,884.16 h 62.6406 v 17.2813 H 1028.52 Z" /><path
             id="path174"
             style="fill:#000000;fill-opacity:1;fill-rule:nonzero;stroke:none"
             d="m 1028.52,848.16 h 62.6406 v 17.2813 H 1028.52 Z" /><path
             id="path176"
             style="fill:#000000;fill-opacity:1;fill-rule:nonzero;stroke:none"
             d="m 1028.52,812.16 h 62.6406 v 17.2813 H 1028.52 Z" /><path
             id="path178"
             style="fill:#000000;fill-opacity:1;fill-rule:nonzero;stroke:none"
             d="m 1028.52,776.16 h 62.6406 v 17.2813 H 1028.52 Z" /><path
             id="path180"
             style="fill:#000000;fill-opacity:1;fill-rule:nonzero;stroke:none"
             d="m 1334.41,1136.72 h 31.1797 v 28.3438 H 1334.41 Z" /><path
             id="path182"
             style="fill:#000000;fill-opacity:1;fill-rule:nonzero;stroke:none"
             d="m 1334.41,1088.53 h 31.1797 v 28.3477 H 1334.41 Z" /><path
             id="path184"
             style="fill:#000000;fill-opacity:1;fill-rule:nonzero;stroke:none"
             d="m 1182.13,1183.21 h 28.3477 v 31.1797 H 1182.13 Z" /><path
             id="path186"
             style="fill:#000000;fill-opacity:1;fill-rule:nonzero;stroke:none"
             d="m 1230.32,1183.21 h 28.3477 v 31.1797 H 1230.32 Z" /><path
             id="path188"
             style="fill:#000000;fill-opacity:1;fill-rule:nonzero;stroke:none"
             d="m 1278.23,1192.9 h 28.3477 v 31.1836 H 1278.23 Z" /><path
             id="path190"
             style="fill:#000000;fill-opacity:1;fill-rule:nonzero;stroke:none"
             d="m 1278.23,1144.71 h 28.3477 v 31.1797 H 1278.23 Z" /><path
             id="path192"
             style="fill:#000000;fill-opacity:1;fill-rule:nonzero;stroke:none"
             d="m 1324.71,1184.63 h 31.1797 v 28.3477 H 1324.71 Z" /><path
             id="path194"
             style="fill:#000000;fill-opacity:1;fill-rule:nonzero;stroke:none"
             d="m 1372.9,1184.63 h 31.1836 v 28.3477 H 1372.9 Z" /><path
             id="path196"
             style="fill:#000000;fill-opacity:1;fill-rule:nonzero;stroke:none"
             d="m 1359.92,794.41 h 28.3477 v 31.1797 H 1359.92 Z" /><path
             id="path198"
             style="fill:#000000;fill-opacity:1;fill-rule:nonzero;stroke:none"
             d="m 1311.73,794.41 h 28.3477 v 31.1797 H 1311.73 Z" /><path
             id="path200"
             style="fill:#000000;fill-opacity:1;fill-rule:nonzero;stroke:none"
             d="m 1262.41,798.32 h 31.1797 v 28.3477 H 1262.41 Z" /><path
             id="path202"
             style="fill:#000000;fill-opacity:1;fill-rule:nonzero;stroke:none"
             d="m 1262.41,750.133 h 31.1797 v 28.3477 H 1262.41 Z" /><path
             id="path204"
             style="fill:#000000;fill-opacity:1;fill-rule:nonzero;stroke:none"
             d="m 1046.41,1136.72 h 31.1797 v 28.3438 H 1046.41 Z" /><path
             id="path206"
             style="fill:#000000;fill-opacity:1;fill-rule:nonzero;stroke:none"
             d="m 1046.41,1088.53 h 31.1797 v 28.3477 H 1046.41 Z" /><path
             id="path208"
             style="fill:#000000;fill-opacity:1;fill-rule:nonzero;stroke:none"
             d="m 1287.92,1096.81 h 28.3477 v 31.1836 H 1287.92 Z" /><path
             id="path210"
             style="fill:#000000;fill-opacity:1;fill-rule:nonzero;stroke:none"
             d="m 1239.73,1096.81 h 28.3477 v 31.1836 H 1239.73 Z" /><path
             id="path212"
             style="fill:#000000;fill-opacity:1;fill-rule:nonzero;stroke:none"
             d="m 1191.83,1087.11 h 28.3438 v 31.1836 H 1191.83 Z" /><path
             id="path214"
             style="fill:#000000;fill-opacity:1;fill-rule:nonzero;stroke:none"
             d="m 1191.83,1135.3 h 28.3438 v 31.1797 H 1191.83 Z" /><path
             id="path216"
             style="fill:#000000;fill-opacity:1;fill-rule:nonzero;stroke:none"
             d="m 1142.5,1098.23 h 31.1797 v 28.3477 H 1142.5 Z" /><path
             id="path218"
             style="fill:#000000;fill-opacity:1;fill-rule:nonzero;stroke:none"
             d="m 1094.32,1098.23 h 31.1797 v 28.3477 H 1094.32 Z" /><path
             id="path220"
             style="fill:#000000;fill-opacity:1;fill-rule:nonzero;stroke:none"
             d="m 1151.12,927.609 h 28.3477 v 31.1797 H 1151.12 Z" /><path
             id="path222"
             style="fill:#000000;fill-opacity:1;fill-rule:nonzero;stroke:none"
             d="m 1102.93,927.609 h 28.3438 v 31.1797 H 1102.93 Z" /><path
             id="path224"
             style="fill:#000000;fill-opacity:1;fill-rule:nonzero;stroke:none"
             d="m 970.809,848.723 h 31.1836 v 28.3438 H 970.809 Z" /><path
             id="path226"
             style="fill:#000000;fill-opacity:1;fill-rule:nonzero;stroke:none"
             d="m 970.809,800.531 h 31.1836 v 28.3477 H 970.809 Z" /><path
             id="path228"
             style="fill:#000000;fill-opacity:1;fill-rule:nonzero;stroke:none"
             d="m 1350.23,930.105 h 28.3477 v 31.1797 H 1350.23 Z" /><path
             id="path230"
             style="fill:#000000;fill-opacity:1;fill-rule:nonzero;stroke:none"
             d="m 1350.23,881.914 h 28.3477 v 31.1836 H 1350.23 Z" /><path
             id="path232"
             style="fill:#000000;fill-opacity:1;fill-rule:nonzero;stroke:none"
             d="m 1254.13,888.008 h 28.3477 v 31.1836 H 1254.13 Z" /><path
             id="path234"
             style="fill:#000000;fill-opacity:1;fill-rule:nonzero;stroke:none"
             d="m 1302.32,888.008 h 28.3477 v 31.1836 H 1302.32 Z" /><path
             id="path236"
             style="fill:#000000;fill-opacity:1;fill-rule:nonzero;stroke:none"
             d="m 1149.7,716.625 h 31.1836 v 28.3477 H 1149.7 Z" /><path
             id="path238"
             style="fill:#000000;fill-opacity:1;fill-rule:nonzero;stroke:none"
             d="m 1101.52,716.625 h 31.1797 v 28.3477 H 1101.52 Z" /><path
             id="path240"
             style="fill:#000000;fill-opacity:1;fill-rule:nonzero;stroke:none"
             d="m 1151.12,988.809 h 28.3477 v 31.1836 H 1151.12 Z" /><path
             id="path242"
             style="fill:#000000;fill-opacity:1;fill-rule:nonzero;stroke:none"
             d="m 1102.93,988.809 h 28.3438 v 31.1836 H 1102.93 Z" /><path
             id="path244"
             style="fill:#000000;fill-opacity:1;fill-rule:nonzero;stroke:none"
             d="m 460.715,551.027 h 31.1797 v 28.3477 H 460.715 Z" /><path
             id="path246"
             style="fill:#000000;fill-opacity:1;fill-rule:nonzero;stroke:none"
             d="m 508.902,551.027 h 31.1836 v 28.3477 H 508.902 Z" /><path
             id="path248"
             style="fill:#000000;fill-opacity:1;fill-rule:nonzero;stroke:none"
             d="m 460.715,608.625 h 31.1797 v 28.3477 H 460.715 Z" /><path
             id="path250"
             style="fill:#000000;fill-opacity:1;fill-rule:nonzero;stroke:none"
             d="m 508.902,608.625 h 31.1836 v 28.3477 H 508.902 Z" /><path
             id="path252"
             style="fill:#000000;fill-opacity:1;fill-rule:nonzero;stroke:none"
             d="m 1172.88,399.602 h 51.8398 v 144 H 1172.88 Z" /><path
             id="path254"
             style="fill:#000000;fill-opacity:1;fill-rule:nonzero;stroke:none"
             d="m 1266.48,399.602 h 51.8398 v 144 H 1266.48 Z" /><path
             id="path256"
             style="fill:#000000;fill-opacity:1;fill-rule:nonzero;stroke:none"
             d="m 812.664,697.5 c 0,12.406 -10.059,22.465 -22.465,22.465 -12.406,0 -22.465,-10.059 -22.465,-22.465 0,-12.406 10.059,-22.465 22.465,-22.465 12.406,0 22.465,10.059 22.465,22.465" /><path
             id="path258"
             style="fill:#000000;fill-opacity:1;fill-rule:nonzero;stroke:none"
             d="m 542.664,670.5 c 0,12.406 -10.059,22.465 -22.465,22.465 -12.406,0 -22.465,-10.059 -22.465,-22.465 0,-12.406 10.059,-22.465 22.465,-22.465 12.406,0 22.465,10.059 22.465,22.465" /><path
             id="path260"
             style="fill:#000000;fill-opacity:1;fill-rule:nonzero;stroke:none"
             d="m 1451.66,490.5 c 0,12.406 -10.05,22.465 -22.46,22.465 -12.41,0 -22.47,-10.059 -22.47,-22.465 0,-12.406 10.06,-22.465 22.47,-22.465 12.41,0 22.46,10.059 22.46,22.465" /><path
             id="path262"
             style="fill:#000000;fill-opacity:1;fill-rule:nonzero;stroke:none"
             d="m 1451.66,756 c 0,12.406 -10.05,22.465 -22.46,22.465 -12.41,0 -22.47,-10.059 -22.47,-22.465 0,-12.406 10.06,-22.465 22.47,-22.465 12.41,0 22.46,10.059 22.46,22.465" /><path
             id="path264"
             style="fill:#000000;fill-opacity:1;fill-rule:nonzero;stroke:none"
             d="m 997.164,1116 c 0,12.41 -10.055,22.46 -22.461,22.46 -12.406,0 -22.465,-10.05 -22.465,-22.46 0,-12.41 10.059,-22.46 22.465,-22.46 12.406,0 22.461,10.05 22.461,22.46" /><path
             id="path266"
             style="fill:#000000;fill-opacity:1;fill-rule:nonzero;stroke:none"
             d="m 1069.16,1044 c 0,12.41 -10.05,22.46 -22.46,22.46 -12.4,0 -22.46,-10.05 -22.46,-22.46 0,-12.41 10.06,-22.46 22.46,-22.46 12.41,0 22.46,10.05 22.46,22.46" /><path
             id="path268"
             style="fill:#000000;fill-opacity:1;fill-rule:nonzero;stroke:none"
             d="m 839.664,900 c 0,12.406 -10.059,22.465 -22.465,22.465 -12.406,0 -22.465,-10.059 -22.465,-22.465 0,-12.406 10.059,-22.465 22.465,-22.465 12.406,0 22.465,10.059 22.465,22.465" /><path
             id="path270"
             style="fill:#000000;fill-opacity:1;fill-rule:nonzero;stroke:none"
             d="m 601.164,1156.5 c 0,12.41 -10.055,22.46 -22.461,22.46 -12.406,0 -22.465,-10.05 -22.465,-22.46 0,-12.41 10.059,-22.46 22.465,-22.46 12.406,0 22.461,10.05 22.461,22.46" /><path
             id="path272"
             style="fill:#000000;fill-opacity:1;fill-rule:nonzero;stroke:none"
             d="m 601.164,940.5 c 0,12.406 -10.055,22.465 -22.461,22.465 -12.406,0 -22.465,-10.059 -22.465,-22.465 0,-12.406 10.059,-22.465 22.465,-22.465 12.406,0 22.461,10.059 22.461,22.465" /><path
             id="path274"
             style="fill:#000000;fill-opacity:1;fill-rule:nonzero;stroke:none"
             d="m 907.164,967.5 c 0,12.406 -10.055,22.465 -22.461,22.465 -12.406,0 -22.465,-10.059 -22.465,-22.465 0,-12.406 10.059,-22.465 22.465,-22.465 12.406,0 22.461,10.059 22.461,22.465" /><path
             id="path276"
             style="fill:#000000;fill-opacity:1;fill-rule:nonzero;stroke:none"
             d="m 965.664,783 c 0,12.406 -10.059,22.465 -22.465,22.465 -12.406,0 -22.465,-10.059 -22.465,-22.465 0,-12.406 10.059,-22.465 22.465,-22.465 12.406,0 22.465,10.059 22.465,22.465" /><path
             id="path278"
             style="fill:#000000;fill-opacity:1;fill-rule:nonzero;stroke:none"
             d="m 439.164,621 c 0,12.406 -10.055,22.465 -22.461,22.465 -12.406,0 -22.465,-10.059 -22.465,-22.465 0,-12.406 10.059,-22.465 22.465,-22.465 12.406,0 22.461,10.059 22.461,22.465" /><path
             id="path280"
             style="fill:#000000;fill-opacity:1;fill-rule:nonzero;stroke:none"
             d="m 835.164,819 c 0,12.406 -10.055,22.465 -22.461,22.465 -12.406,0 -22.465,-10.059 -22.465,-22.465 0,-12.406 10.059,-22.465 22.465,-22.465 12.406,0 22.461,10.059 22.461,22.465" /><path
             id="path282"
             style="fill:#000000;fill-opacity:1;fill-rule:nonzero;stroke:none"
             d="m 538.168,850.5 c 0,12.406 -10.059,22.465 -22.465,22.465 -12.406,0 -22.465,-10.059 -22.465,-22.465 0,-12.406 10.059,-22.465 22.465,-22.465 12.406,0 22.465,10.059 22.465,22.465" /><path
             id="path284"
             style="fill:#000000;fill-opacity:1;fill-rule:nonzero;stroke:none"
             d="m 1240.16,945 c 0,12.406 -10.05,22.465 -22.46,22.465 -12.4,0 -22.46,-10.059 -22.46,-22.465 0,-12.406 10.06,-22.465 22.46,-22.465 12.41,0 22.46,10.059 22.46,22.465" /><path
             id="path286"
             style="fill:#000000;fill-opacity:1;fill-rule:nonzero;stroke:none"
             d="m 970.164,945 c 0,12.406 -10.055,22.465 -22.461,22.465 -12.406,0 -22.465,-10.059 -22.465,-22.465 0,-12.406 10.059,-22.465 22.465,-22.465 12.406,0 22.461,10.059 22.461,22.465" /><path
             id="path288"
             style="fill:#000000;fill-opacity:1;fill-rule:nonzero;stroke:none"
             d="m 533.664,796.5 c 0,12.406 -10.059,22.465 -22.465,22.465 -12.406,0 -22.465,-10.059 -22.465,-22.465 0,-12.406 10.059,-22.465 22.465,-22.465 12.406,0 22.465,10.059 22.465,22.465" /><path
             id="path290"
             style="fill:#000000;fill-opacity:1;fill-rule:nonzero;stroke:none"
             d="m 943.164,526.5 c 0,12.406 -10.055,22.465 -22.461,22.465 -12.406,0 -22.465,-10.059 -22.465,-22.465 0,-12.406 10.059,-22.465 22.465,-22.465 12.406,0 22.461,10.059 22.461,22.465" /><path
             id="path292"
             style="fill:#000000;fill-opacity:1;fill-rule:nonzero;stroke:none"
             d="m 511.164,715.5 c 0,12.406 -10.055,22.465 -22.461,22.465 -12.406,0 -22.465,-10.059 -22.465,-22.465 0,-12.406 10.059,-22.465 22.465,-22.465 12.406,0 22.461,10.059 22.461,22.465" /><path
             id="path294"
             style="fill:#000000;fill-opacity:1;fill-rule:nonzero;stroke:none"
             d="m 803.664,589.5 c 0,12.406 -10.059,22.465 -22.465,22.465 -12.406,0 -22.465,-10.059 -22.465,-22.465 0,-12.406 10.059,-22.465 22.465,-22.465 12.406,0 22.465,10.059 22.465,22.465" /><path
             id="path296"
             style="fill:#000000;fill-opacity:1;fill-rule:nonzero;stroke:none"
             d="m 875.664,738 c 0,12.406 -10.059,22.465 -22.465,22.465 -12.406,0 -22.465,-10.059 -22.465,-22.465 0,-12.406 10.059,-22.465 22.465,-22.465 12.406,0 22.465,10.059 22.465,22.465" /><path
             id="path298"
             style="fill:#000000;fill-opacity:1;fill-rule:nonzero;stroke:none"
             d="m 1091.66,621 c 0,12.406 -10.05,22.465 -22.46,22.465 -12.41,0 -22.47,-10.059 -22.47,-22.465 0,-12.406 10.06,-22.465 22.47,-22.465 12.41,0 22.46,10.059 22.46,22.465" /><path
             id="path300"
             style="fill:#000000;fill-opacity:1;fill-rule:nonzero;stroke:none"
             d="m 763.164,630 c 0,12.406 -10.055,22.465 -22.461,22.465 -12.406,0 -22.465,-10.059 -22.465,-22.465 0,-12.406 10.059,-22.465 22.465,-22.465 12.406,0 22.461,10.059 22.461,22.465" /><path
             id="path302"
             style="fill:#000000;fill-opacity:1;fill-rule:nonzero;stroke:none"
             d="m 1136.66,580.5 c 0,12.406 -10.05,22.465 -22.46,22.465 -12.41,0 -22.47,-10.059 -22.47,-22.465 0,-12.406 10.06,-22.465 22.47,-22.465 12.41,0 22.46,10.059 22.46,22.465" /><path
             id="path304"
             style="fill:#000000;fill-opacity:1;fill-rule:nonzero;stroke:none"
             d="m 1289.66,576 c 0,12.406 -10.05,22.465 -22.46,22.465 -12.41,0 -22.47,-10.059 -22.47,-22.465 0,-12.406 10.06,-22.465 22.47,-22.465 12.41,0 22.46,10.059 22.46,22.465" /><path
             id="path306"
             style="fill:#000000;fill-opacity:1;fill-rule:nonzero;stroke:none"
             d="m 655.164,940.5 c 0,12.406 -10.055,22.465 -22.461,22.465 -12.406,0 -22.465,-10.059 -22.465,-22.465 0,-12.406 10.059,-22.465 22.465,-22.465 12.406,0 22.461,10.059 22.461,22.465" /><path
             id="path308"
             style="fill:#000000;fill-opacity:1;fill-rule:nonzero;stroke:none"
             d="m 992.664,657 c 0,12.406 -10.059,22.465 -22.465,22.465 -12.406,0 -22.465,-10.059 -22.465,-22.465 0,-12.406 10.059,-22.465 22.465,-22.465 12.406,0 22.465,10.059 22.465,22.465" /><path
             id="path310"
             style="fill:#000000;fill-opacity:1;fill-rule:nonzero;stroke:none"
             d="m 677.664,634.5 c 0,12.406 -10.059,22.465 -22.465,22.465 -12.406,0 -22.465,-10.059 -22.465,-22.465 0,-12.406 10.059,-22.465 22.465,-22.465 12.406,0 22.465,10.059 22.465,22.465" /><path
             id="path312"
             style="fill:#000000;fill-opacity:1;fill-rule:nonzero;stroke:none"
             d="m 970.164,1066.5 c 0,12.41 -10.055,22.46 -22.461,22.46 -12.406,0 -22.465,-10.05 -22.465,-22.46 0,-12.41 10.059,-22.46 22.465,-22.46 12.406,0 22.461,10.05 22.461,22.46" /><path
             id="path314"
             style="fill:#000000;fill-opacity:1;fill-rule:nonzero;stroke:none"
             d="m 718.164,963 c 0,12.406 -10.055,22.465 -22.461,22.465 -12.406,0 -22.465,-10.059 -22.465,-22.465 0,-12.406 10.059,-22.465 22.465,-22.465 12.406,0 22.461,10.059 22.461,22.465" /><path
             id="path316"
             style="fill:#000000;fill-opacity:1;fill-rule:nonzero;stroke:none"
             d="m 911.664,778.5 c 0,12.406 -10.059,22.465 -22.465,22.465 -12.406,0 -22.465,-10.059 -22.465,-22.465 0,-12.406 10.059,-22.465 22.465,-22.465 12.406,0 22.465,10.059 22.465,22.465" /><path
             id="path318"
             style="fill:#000000;fill-opacity:1;fill-rule:nonzero;stroke:none"
             d="m 1235.66,733.5 c 0,12.406 -10.05,22.465 -22.46,22.465 -12.41,0 -22.47,-10.059 -22.47,-22.465 0,-12.406 10.06,-22.465 22.47,-22.465 12.41,0 22.46,10.059 22.46,22.465" /><path
             id="path320"
             style="fill:#000000;fill-opacity:1;fill-rule:nonzero;stroke:none"
             d="m 1222.16,616.5 c 0,12.406 -10.05,22.465 -22.46,22.465 -12.4,0 -22.46,-10.059 -22.46,-22.465 0,-12.406 10.06,-22.465 22.46,-22.465 12.41,0 22.46,10.059 22.46,22.465" /><path
             id="path322"
             style="fill:#000000;fill-opacity:1;fill-rule:nonzero;stroke:none"
             d="m 1348.16,576 c 0,12.406 -10.05,22.465 -22.46,22.465 -12.4,0 -22.46,-10.059 -22.46,-22.465 0,-12.406 10.06,-22.465 22.46,-22.465 12.41,0 22.46,10.059 22.46,22.465" /><path
             id="path324"
             style="fill:#000000;fill-opacity:1;fill-rule:nonzero;stroke:none"
             d="m 961.164,846 c 0,12.406 -10.055,22.465 -22.461,22.465 -12.406,0 -22.465,-10.059 -22.465,-22.465 0,-12.406 10.059,-22.465 22.465,-22.465 12.406,0 22.461,10.059 22.461,22.465" /><path
             id="path326"
             style="fill:#000000;fill-opacity:1;fill-rule:nonzero;stroke:none"
             d="m 1334.66,724.5 c 0,12.406 -10.05,22.465 -22.46,22.465 -12.41,0 -22.47,-10.059 -22.47,-22.465 0,-12.406 10.06,-22.465 22.47,-22.465 12.41,0 22.46,10.059 22.46,22.465" /><path
             id="path328"
             style="fill:#000000;fill-opacity:1;fill-rule:nonzero;stroke:none"
             d="m 1091.66,990 c 0,12.41 -10.05,22.46 -22.46,22.46 -12.41,0 -22.47,-10.05 -22.47,-22.46 0,-12.406 10.06,-22.465 22.47,-22.465 12.41,0 22.46,10.059 22.46,22.465" /><path
             id="path330"
             style="fill:#000000;fill-opacity:1;fill-rule:nonzero;stroke:none"
             d="m 369.609,1278 c 0,11.27 -9.14,20.41 -20.41,20.41 -11.269,0 -20.41,-9.14 -20.41,-20.41 0,-11.27 9.141,-20.41 20.41,-20.41 11.27,0 20.41,9.14 20.41,20.41" /><path
             id="path332"
             style="fill:#000000;fill-opacity:1;fill-rule:nonzero;stroke:none"
             d="m 369.609,342 c 0,11.27 -9.14,20.41 -20.41,20.41 -11.269,0 -20.41,-9.14 -20.41,-20.41 0,-11.27 9.141,-20.41 20.41,-20.41 11.27,0 20.41,9.14 20.41,20.41" /><path
             id="path334"
             style="fill:#000000;fill-opacity:1;fill-rule:nonzero;stroke:none"
             d="m 1521.61,342 c 0,11.27 -9.14,20.41 -20.41,20.41 -11.27,0 -20.41,-9.14 -20.41,-20.41 0,-11.27 9.14,-20.41 20.41,-20.41 11.27,0 20.41,9.14 20.41,20.41" /><path
             id="path336"
             style="fill:#000000;fill-opacity:1;fill-rule:nonzero;stroke:none"
             d="m 1521.61,1278 c 0,11.27 -9.14,20.41 -20.41,20.41 -11.27,0 -20.41,-9.14 -20.41,-20.41 0,-11.27 9.14,-20.41 20.41,-20.41 11.27,0 20.41,9.14 20.41,20.41" /></g></g></g></g></svg>